<?xml version="1.0" standalone="no"?>
<!DOCTYPE svg PUBLIC "-//W3C//DTD SVG 20010904//EN"
 "http://www.w3.org/TR/2001/REC-SVG-20010904/DTD/svg10.dtd">
<svg version="1.0" xmlns="http://www.w3.org/2000/svg"
 width="440.000000pt" height="443.000000pt" viewBox="0 0 440.000000 443.000000"
 preserveAspectRatio="xMidYMid meet">

<g transform="translate(0.000000,443.000000) scale(0.100000,-0.100000)"
fill="#000000" stroke="none">
<path d="M1965 4403 c-284 -33 -533 -106 -767 -224 -426 -214 -783 -583 -985
-1019 -274 -592 -268 -1269 17 -1855 361 -743 1100 -1212 1920 -1218 211 -2
324 10 518 54 l93 21 -37 41 c-20 23 -73 80 -118 127 -45 47 -121 128 -171
180 -49 52 -128 136 -175 185 -47 50 -157 167 -245 260 -88 94 -198 211 -245
260 -385 405 -396 418 -463 550 -92 183 -111 265 -112 480 0 147 3 182 23 255
83 303 263 530 537 675 235 125 544 149 805 64 168 -55 317 -155 470 -315 169
-178 291 -307 580 -614 91 -96 203 -215 250 -265 47 -49 122 -128 166 -175
177 -188 223 -234 227 -230 12 12 60 256 74 370 20 165 13 430 -16 595 -101
573 -400 1053 -873 1403 -273 201 -668 353 -1020 391 -89 10 -383 13 -453 4z"/>
<path d="M2765 2159 c-27 -6 -88 -28 -135 -51 -151 -72 -274 -221 -321 -388
-7 -25 -13 -94 -13 -155 1 -87 5 -123 23 -175 44 -126 76 -170 305 -410 45
-47 119 -126 166 -175 46 -50 125 -133 175 -185 49 -52 128 -136 174 -185 280
-298 333 -342 461 -385 91 -31 243 -38 330 -15 152 40 272 123 355 245 136
201 140 466 10 663 -40 59 -51 71 -375 412 -47 50 -157 167 -245 260 -378 402
-400 425 -475 470 -88 53 -171 77 -285 81 -55 2 -122 -1 -150 -7z"/>
</g>
</svg>
